<?xml version="1.0" standalone="no"?>
<!DOCTYPE svg PUBLIC "-//W3C//DTD SVG 20010904//EN"
 "http://www.w3.org/TR/2001/REC-SVG-20010904/DTD/svg10.dtd">
<svg version="1.0" xmlns="http://www.w3.org/2000/svg"
 width="512.000000pt" height="512.000000pt" viewBox="0 0 512.000000 512.000000"
 preserveAspectRatio="xMidYMid meet">
<metadata>
Created by potrace 1.14, written by Peter Selinger 2001-2017
</metadata>
<g transform="translate(0.000000,512.000000) scale(0.100000,-0.100000)"
fill="#000000" stroke="none">
<path d="M597 5113 c-2 -5 -3 -959 -3 -2122 l1 -2113 525 -235 c289 -128 602
-268 695 -310 94 -41 193 -86 220 -98 28 -13 111 -50 185 -83 74 -33 160 -71
190 -85 30 -13 77 -34 103 -45 l48 -21 87 38 c48 21 107 48 132 59 25 11 153
69 285 127 132 59 268 120 303 136 35 16 65 29 67 29 2 0 41 17 87 39 45 21
117 53 158 71 41 18 108 48 148 66 41 19 75 34 77 34 2 0 41 17 87 39 45 21
117 53 158 71 41 18 108 48 148 66 41 19 75 34 77 34 2 0 36 16 77 34 l74 35
-1 2118 0 2118 -1962 3 c-1079 1 -1964 -1 -1966 -5z"/>
</g>
</svg>
